<svg width="64" height="64" viewBox="0 0 64 64" fill="none" xmlns="http://www.w3.org/2000/svg">
<path d="M20.8 5.3335H43.2C51.7334 5.3335 58.6667 12.2668 58.6667 20.8002V43.2002C58.6667 47.3022 57.0372 51.2362 54.1366 54.1367C51.2361 57.0373 47.3021 58.6668 43.2 58.6668H20.8C12.2667 58.6668 5.33337 51.7335 5.33337 43.2002V20.8002C5.33337 16.6981 6.96289 12.7641 9.86346 9.86358C12.764 6.96302 16.698 5.3335 20.8 5.3335ZM20.2667 10.6668C17.7206 10.6668 15.2788 11.6783 13.4785 13.4786C11.6781 15.279 10.6667 17.7207 10.6667 20.2668V43.7335C10.6667 49.0402 14.96 53.3335 20.2667 53.3335H43.7334C46.2794 53.3335 48.7212 52.3221 50.5216 50.5217C52.3219 48.7214 53.3334 46.2796 53.3334 43.7335V20.2668C53.3334 14.9602 49.04 10.6668 43.7334 10.6668H20.2667ZM46 14.6668C46.8841 14.6668 47.7319 15.018 48.3571 15.6431C48.9822 16.2683 49.3334 17.1161 49.3334 18.0002C49.3334 18.8842 48.9822 19.7321 48.3571 20.3572C47.7319 20.9823 46.8841 21.3335 46 21.3335C45.116 21.3335 44.2681 20.9823 43.643 20.3572C43.0179 19.7321 42.6667 18.8842 42.6667 18.0002C42.6667 17.1161 43.0179 16.2683 43.643 15.6431C44.2681 15.018 45.116 14.6668 46 14.6668ZM32 18.6668C35.5363 18.6668 38.9276 20.0716 41.4281 22.5721C43.9286 25.0726 45.3334 28.4639 45.3334 32.0002C45.3334 35.5364 43.9286 38.9278 41.4281 41.4282C38.9276 43.9287 35.5363 45.3335 32 45.3335C28.4638 45.3335 25.0724 43.9287 22.5719 41.4282C20.0715 38.9278 18.6667 35.5364 18.6667 32.0002C18.6667 28.4639 20.0715 25.0726 22.5719 22.5721C25.0724 20.0716 28.4638 18.6668 32 18.6668ZM32 24.0002C29.8783 24.0002 27.8435 24.843 26.3432 26.3433C24.8429 27.8436 24 29.8784 24 32.0002C24 34.1219 24.8429 36.1567 26.3432 37.657C27.8435 39.1573 29.8783 40.0002 32 40.0002C34.1218 40.0002 36.1566 39.1573 37.6569 37.657C39.1572 36.1567 40 34.1219 40 32.0002C40 29.8784 39.1572 27.8436 37.6569 26.3433C36.1566 24.843 34.1218 24.0002 32 24.0002Z" fill="#F8F8F8"/>
</svg>
