<svg width="187" height="339" viewBox="0 0 187 339" fill="none" xmlns="http://www.w3.org/2000/svg">
<path d="M232.758 212.37C208.495 246.98 179.61 273.403 152.564 288.165C125.458 302.961 100.509 305.899 83.8054 294.189C67.1021 282.48 61.3571 258.024 66.0236 227.497C70.6795 197.039 85.6697 160.875 109.933 126.265C134.196 91.6548 163.081 65.232 190.126 50.4696C217.233 35.6737 242.182 32.7357 258.885 44.4452C275.588 56.1548 281.333 80.6106 276.667 111.138C272.011 141.596 257.021 177.76 232.758 212.37Z" stroke="white" stroke-width="2"/>
<path d="M138.895 238.466C100.768 220.221 69.9572 196.072 50.9505 171.821C31.9006 147.515 24.9018 123.388 33.7068 104.987C42.5118 86.5865 65.6908 76.9001 96.5699 76.4857C127.379 76.0723 165.515 84.9148 203.642 103.159C241.769 121.404 272.58 145.553 291.587 169.804C310.637 194.111 317.635 218.238 308.83 236.638C300.025 255.039 276.846 264.725 245.967 265.14C215.158 265.553 177.023 256.711 138.895 238.466Z" stroke="white" stroke-width="2"/>
</svg>
